<?xml version="1.0" encoding="UTF-8"?>
<svg width="640" height="200" viewBox="0 0 640 200" xmlns="http://www.w3.org/2000/svg">
  <defs>
    <linearGradient id="bannerBg_starter" x1="0%" y1="0%" x2="100%" y2="0%">
      <stop offset="0%" stop-color="#030305"/>
      <stop offset="50%" stop-color="#08080c"/>
      <stop offset="100%" stop-color="#030305"/>
    </linearGradient>
    <linearGradient id="bannerGold_starter" x1="0%" y1="0%" x2="100%" y2="100%">
      <stop offset="0%" stop-color="#8a8a9e"/>
      <stop offset="25%" stop-color="#b8b8cc"/>
      <stop offset="50%" stop-color="#d4d4e4"/>
      <stop offset="75%" stop-color="#9a9ab0"/>
      <stop offset="100%" stop-color="#8a8a9e"/>
    </linearGradient>
    <linearGradient id="bannerBar_starter" x1="0%" y1="0%" x2="100%" y2="0%">
      <stop offset="0%" stop-color="#5a5a6e" stop-opacity="0"/>
      <stop offset="50%" stop-color="#8a8a9e" stop-opacity="0.15"/>
      <stop offset="100%" stop-color="#5a5a6e" stop-opacity="0"/>
    </linearGradient>
    
    <radialGradient id="vortexGlow_starter" cx="530" cy="100" r="70" gradientUnits="userSpaceOnUse">
      <stop offset="0%" stop-color="#b8b8cc" stop-opacity="0.03"/>
      <stop offset="100%" stop-color="#030305" stop-opacity="0"/>
    </radialGradient>
    <filter id="bannerBloom_starter">
      <feGaussianBlur stdDeviation="1.5" result="blur"/>
      <feComposite in="SourceGraphic" in2="blur" operator="over"/>
    </filter>
  </defs>

  <rect width="640" height="200" rx="12" fill="url(#bannerBg_starter)"/>

  <!-- Top/bottom accent lines -->
  <rect x="0" y="0" width="640" height="0.5" fill="#8a8a9e" opacity="0.08"/>
  <rect x="0" y="192" width="640" height="8" fill="url(#bannerBar_starter)"/>
  <rect x="0" y="192" width="640" height="0.5" fill="#8a8a9e" opacity="0.06"/>

  <!-- Vortex on right side -->
  <g>
    <rect x="420" y="0" width="220" height="200" fill="url(#vortexGlow_starter)"/>
    <path d="M536.0,100.0 L539.2,101.8 L541.8,104.8 L543.5,108.9 L543.9,113.7 L542.9,118.9 L540.4,124.1 L536.2,129.0 L530.6,133.0 L523.6,135.8 L515.6,137.1 L506.9,136.4 L498.0,133.7 L489.3,128.9 L481.4,121.9 L474.8,112.9 L470.0,102.1 L467.4,89.9 L467.4,76.9 L470.1,63.5 L475.8,50.3 L484.4,38.1 L495.8,27.4 L509.6,18.9 L525.5,13.1" fill="none" stroke="#6a6a80" stroke-width="0.5813188344066207" opacity="0.039"/>
    <path d="M529.9,106.0 L528.1,109.6 L525.0,112.7 L520.9,114.9 L515.9,116.0 L510.4,115.7 L504.6,113.8 L499.0,110.4 L493.9,105.4 L489.7,99.0 L486.7,91.2 L485.4,82.4 L485.8,72.9 L488.4,63.1 L493.1,53.4 L499.9,44.3 L508.8,36.3 L519.7,29.9 L532.2,25.3 L545.9,23.1 L560.5,23.5 L575.3,26.7 L589.9,32.9 L603.7,41.9 L616.0,53.9" fill="none" stroke="#8a8a9e" stroke-width="0.6448655658819392" opacity="0.044"/>
    <path d="M524.0,99.7 L520.5,97.5 L517.8,93.9 L516.4,89.2 L516.4,83.7 L518.3,78.0 L522.0,72.4 L527.6,67.5 L534.8,64.0 L543.3,62.1 L552.8,62.4 L562.6,65.2 L572.2,70.4 L580.8,78.2 L588.0,88.4 L592.9,100.6 L595.1,114.3 L594.3,128.9 L590.0,143.7 L582.3,157.9 L571.2,170.7 L557.0,181.3 L540.2,188.9 L521.4,192.8 L501.4,192.7" fill="none" stroke="#9e9eb4" stroke-width="0.964233956452677" opacity="0.066"/>
    <path d="M530.4,94.0 L532.6,90.1 L536.1,86.9 L540.8,84.8 L546.4,84.0 L552.6,84.9 L558.8,87.6 L564.7,92.1 L569.8,98.3 L573.6,106.2 L575.8,115.3 L575.9,125.4 L573.8,136.0 L569.3,146.6 L562.3,156.6 L552.9,165.5 L541.2,172.7 L527.7,177.8 L512.8,180.2 L496.9,179.7 L480.7,175.9 L464.8,168.8 L450.0,158.3 L437.0,144.6 L426.4,128.1" fill="none" stroke="#6a6a80" stroke-width="0.8057938380220848" opacity="0.034"/>
    <ellipse cx="530" cy="100" rx="8" ry="4.7" transform="rotate(12 530 100)" fill="none" stroke="#6a6a80" stroke-width="0.4" opacity="0.032"/>
    <ellipse cx="530" cy="100" rx="18" ry="5.6" transform="rotate(30 530 100)" fill="none" stroke="#8a8a9e" stroke-width="0.4" opacity="0.049"/>
    <ellipse cx="530" cy="100" rx="28" ry="7.6" transform="rotate(58 530 100)" fill="none" stroke="#9e9eb4" stroke-width="0.4" opacity="0.046"/>
    <ellipse cx="530" cy="100" rx="38" ry="17.0" transform="rotate(67 530 100)" fill="none" stroke="#6a6a80" stroke-width="0.4" opacity="0.048"/>
    <ellipse cx="530" cy="100" rx="48" ry="19.3" transform="rotate(97 530 100)" fill="none" stroke="#8a8a9e" stroke-width="0.4" opacity="0.035"/>
    <ellipse cx="530" cy="100" rx="58" ry="15.6" transform="rotate(122 530 100)" fill="none" stroke="#9e9eb4" stroke-width="0.4" opacity="0.038"/>
    <circle cx="516.6" cy="99.7" r="0.9" fill="#d4d4e4" opacity="0.046"/>
    <circle cx="607.5" cy="99.1" r="0.2" fill="#9e9eb4" opacity="0.029"/>
    <circle cx="544.7" cy="103.9" r="0.9" fill="#9e9eb4" opacity="0.042"/>
    <circle cx="490.5" cy="141.4" r="0.7" fill="#9e9eb4" opacity="0.036"/>
    <circle cx="473.4" cy="62.9" r="0.7" fill="#9e9eb4" opacity="0.028"/>
    <circle cx="528.9" cy="113.0" r="0.9" fill="#b8b8cc" opacity="0.073"/>
    <circle cx="433.5" cy="86.6" r="0.9" fill="#b8b8cc" opacity="0.057"/>
    <circle cx="614.9" cy="54.5" r="1.0" fill="#9e9eb4" opacity="0.038"/>
    <circle cx="473.4" cy="97.8" r="0.9" fill="#b8b8cc" opacity="0.071"/>
    <circle cx="522.1" cy="48.6" r="0.6" fill="#d4d4e4" opacity="0.028"/>
    <circle cx="495.2" cy="114.3" r="0.7" fill="#b8b8cc" opacity="0.079"/>
    <circle cx="498.3" cy="143.2" r="0.4" fill="#9e9eb4" opacity="0.020"/>
    <circle cx="569.7" cy="133.2" r="0.7" fill="#d4d4e4" opacity="0.032"/>
    <circle cx="445.7" cy="110.0" r="0.6" fill="#9e9eb4" opacity="0.033"/>
    <circle cx="515.9" cy="100.9" r="0.6" fill="#b8b8cc" opacity="0.053"/>
    <circle cx="537.1" cy="107.5" r="0.3" fill="#d4d4e4" opacity="0.072"/>
    <circle cx="434.9" cy="90.1" r="0.7" fill="#d4d4e4" opacity="0.057"/>
    <circle cx="538.4" cy="85.6" r="0.4" fill="#9e9eb4" opacity="0.045"/>
    <circle cx="474.8" cy="82.4" r="0.3" fill="#9e9eb4" opacity="0.054"/>
    <circle cx="527.0" cy="91.4" r="0.3" fill="#b8b8cc" opacity="0.075"/>
    <circle cx="536.7" cy="102.9" r="0.6" fill="#d4d4e4" opacity="0.035"/>
    <circle cx="554.0" cy="74.1" r="0.5" fill="#d4d4e4" opacity="0.075"/>
    <circle cx="626.5" cy="108.3" r="0.5" fill="#9e9eb4" opacity="0.068"/>
    <circle cx="472.2" cy="140.5" r="0.6" fill="#d4d4e4" opacity="0.069"/>
    <circle cx="498.5" cy="91.2" r="0.8" fill="#9e9eb4" opacity="0.033"/>
    <circle cx="580.8" cy="129.9" r="1.0" fill="#9e9eb4" opacity="0.068"/>
    <circle cx="520.1" cy="39.7" r="0.4" fill="#d4d4e4" opacity="0.074"/>
    <circle cx="436.3" cy="94.5" r="1.1" fill="#b8b8cc" opacity="0.075"/>
    <circle cx="535.7" cy="70.8" r="0.5" fill="#b8b8cc" opacity="0.038"/>
    <circle cx="557.4" cy="133.4" r="0.8" fill="#b8b8cc" opacity="0.077"/>
    
  </g>

  <!-- Logo mark -->
  <g transform="translate(28, 16) scale(0.33)">
    <path d="M 256 56 C 368 56, 456 144, 456 256 C 456 338, 394 408, 318 428 L 318 434 C 318 444, 308 454, 298 454 L 298 494 L 214 494 L 214 454 C 204 454, 194 444, 194 434 L 194 428 C 118 408, 56 338, 56 256 C 56 144, 144 56, 256 56 Z"
          fill="url(#bannerGold_starter)" opacity="0.9"/>
    <path d="M 256 98 C 348 98, 420 170, 420 256 C 420 318, 378 374, 308 390 L 298 390 C 288 390, 278 400, 278 410 L 278 466 L 234 466 L 234 410 C 234 400, 224 390, 214 390 L 204 390 C 134 374, 92 318, 92 256 C 92 170, 164 98, 256 98 Z"
          fill="#030305"/>
    <g fill="url(#bannerGold_starter)">
      <path d="M174 270 Q170 170 192 120 Q200 96 220 96 Q240 96 240 130 Q240 192 230 270 Q206 266 174 270Z"/>
      <path d="M338 270 Q342 170 320 120 Q312 96 292 96 Q272 96 272 130 Q272 192 282 270 Q306 266 338 270Z"/>
      <ellipse cx="256" cy="322" rx="112" ry="92"/>
    </g>
  </g>

  <!-- RABBIT HOLE INC — bigger -->
  <text x="210" y="52" font-family="'Cormorant Garamond', 'Georgia', serif"
        font-size="26" font-weight="700" letter-spacing="8"
        fill="#9a9ab0" opacity="0.85">
    RABBIT HOLE
  </text>
  <text x="212" y="70" font-family="'Tenor Sans', 'Helvetica Neue', sans-serif"
        font-size="11" font-weight="400" letter-spacing="5"
        fill="#9a9ab0" opacity="0.6">
    INC
  </text>

  <!-- Agents count — spaced below branding -->
  <text x="212" y="100" font-family="'IBM Plex Mono', monospace"
        font-size="15" font-weight="600" letter-spacing="1"
        fill="#d4d4e4">
    1 Wunderbot
  </text>
  <text x="212" y="118" font-family="'IBM Plex Mono', monospace"
        font-size="11" font-weight="400" fill="#9a9ab0" opacity="0.8">
    500 AI messages/mo included
  </text>

  <!-- FULL WUNDERLAND ACCESS — readable -->
  <text x="212" y="140" font-family="'IBM Plex Mono', monospace"
        font-size="9" font-weight="600" letter-spacing="2"
        fill="#b8b8cc" opacity="0.7">
    FULL WUNDERLAND ACCESS
  </text>

  <!-- Plan name + price at bottom -->
  <text x="212" y="176" font-family="'Cormorant Garamond', 'Georgia', serif"
        font-size="28" font-weight="600" fill="#d4d4e4" letter-spacing="2">
    Starter
  </text>
  <text x="330" y="176" font-family="'IBM Plex Mono', monospace"
        font-size="20" font-weight="700" fill="#b8b8cc">
    $19<tspan font-size="12" font-weight="400" fill="#8a8a9e" opacity="0.7">/mo</tspan>
  </text>

  <!-- Corner brackets -->
  <g opacity="0.10" stroke="#8a8a9e" stroke-width="1">
    <polyline points="8,24 8,8 24,8" fill="none" stroke-linecap="round"/>
    <polyline points="616,8 632,8 632,24" fill="none" stroke-linecap="round"/>
    <polyline points="8,176 8,192 24,192" fill="none" stroke-linecap="round"/>
    <polyline points="616,192 632,192 632,176" fill="none" stroke-linecap="round"/>
  </g>
</svg>