<?xml version="1.0" encoding="UTF-8"?>
<svg width="1000" height="200" viewBox="0 0 1000 200" xmlns="http://www.w3.org/2000/svg">
  <rect width="1000" height="200" fill="#ffffff"/>

  <!-- Keyhole+rabbit logo -->
  <g transform="translate(30, 12) scale(0.34)">
    <path d="M 256 56 C 368 56, 456 144, 456 256 C 456 338, 394 408, 318 428 L 318 434 C 318 444, 308 454, 298 454 L 298 494 L 214 494 L 214 454 C 204 454, 194 444, 194 434 L 194 428 C 118 408, 56 338, 56 256 C 56 144, 144 56, 256 56 Z"
          fill="#000000"/>
    <path d="M 256 98 C 348 98, 420 170, 420 256 C 420 318, 378 374, 308 390 L 298 390 C 288 390, 278 400, 278 410 L 278 466 L 234 466 L 234 410 C 234 400, 224 390, 214 390 L 204 390 C 134 374, 92 318, 92 256 C 92 170, 164 98, 256 98 Z"
          fill="#ffffff"/>
    <g fill="#000000">
      <path d="M174 270 Q170 170 192 120 Q200 96 220 96 Q240 96 240 130 Q240 192 230 270 Q206 266 174 270Z"/>
      <path d="M338 270 Q342 170 320 120 Q312 96 292 96 Q272 96 272 130 Q272 192 282 270 Q306 266 338 270Z"/>
      <ellipse cx="256" cy="322" rx="112" ry="92"/>
    </g>
  </g>

  <!-- RABBIT HOLE INC -->
  <text x="230" y="88" font-family="'Cormorant Garamond', 'Georgia', serif"
        font-size="36" font-weight="600" letter-spacing="10" fill="#000000">
    RABBIT HOLE
  </text>
  <text x="232" y="116" font-family="'Tenor Sans', 'Helvetica Neue', sans-serif"
        font-size="16" font-weight="400" letter-spacing="8" fill="#000000">
    INC
  </text>

  <!-- Thin divider -->
  <line x1="230" y1="130" x2="580" y2="130" stroke="#000000" stroke-width="1"/>

  <!-- Plan name -->
  <text x="232" y="168" font-family="'IBM Plex Mono', monospace"
        font-size="28" font-weight="600" letter-spacing="3" fill="#000000">
    Starter
  </text>

  <!-- Price -->
  <text x="400" y="168" font-family="'IBM Plex Mono', monospace"
        font-size="22" font-weight="400" fill="#000000">
    $19/mo
  </text>
</svg>