<?xml version="1.0" encoding="UTF-8"?>
<svg width="100" height="100" viewBox="0 0 100 100" xmlns="http://www.w3.org/2000/svg">
    <defs>
        
        <linearGradient id="primaryGradicon100L" x1="0%" y1="0%" x2="100%" y2="100%">
            <stop offset="0%" stop-color="#1e293b"/>
            <stop offset="100%" stop-color="#334155"/>
        </linearGradient>
        <linearGradient id="blueGradicon100L" x1="0%" y1="0%" x2="100%" y2="100%">
            <stop offset="0%" stop-color="#1e293b"/>
            <stop offset="100%" stop-color="#1e293b"/>
        </linearGradient>
        <linearGradient id="goldGradicon100L" x1="0%" y1="0%" x2="100%" y2="100%">
            <stop offset="0%" stop-color="#334155"/>
            <stop offset="100%" stop-color="#334155"/>
        </linearGradient>
        <linearGradient id="textGradicon100L" x1="0%" y1="0%" x2="100%" y2="0%">
            <stop offset="0%" stop-color="#1e293b"/>
            <stop offset="100%" stop-color="#1e293b"/>
        </linearGradient>
        <linearGradient id="mirrorSurfaceicon100L" x1="0%" y1="0%" x2="0%" y2="100%">
            <stop offset="0%" stop-color="#475569" stop-opacity="0.5"/>
            <stop offset="50%" stop-color="#334155" stop-opacity="0.3"/>
            <stop offset="100%" stop-color="#475569" stop-opacity="0.1"/>
        </linearGradient>
        <linearGradient id="mirrorShimmericon100L" x1="0%" y1="0%" x2="100%" y2="0%">
            <stop offset="0%" stop-color="#1e293b" stop-opacity="0.2"/>
            <stop offset="50%" stop-color="#475569" stop-opacity="0.9"/>
            <stop offset="100%" stop-color="#1e293b" stop-opacity="0.2"/>
        </linearGradient>
        <linearGradient id="reflectionGradicon100L" x1="0%" y1="0%" x2="0%" y2="100%">
            <stop offset="0%" stop-color="#1e293b" stop-opacity="0.5"/>
            <stop offset="100%" stop-color="#1e293b" stop-opacity="0.08"/>
        </linearGradient>
        <linearGradient id="frameGradicon100L" x1="0%" y1="0%" x2="100%" y2="100%">
            <stop offset="0%" stop-color="#1e293b"/>
            <stop offset="100%" stop-color="#1e293b"/>
        </linearGradient>
        <linearGradient id="frameHighlighticon100L" x1="0%" y1="0%" x2="100%" y2="100%">
            <stop offset="0%" stop-color="#475569" stop-opacity="0.5"/>
            <stop offset="100%" stop-color="#475569" stop-opacity="0.5"/>
        </linearGradient>
        <filter id="frameShadowicon100L" x="-20%" y="-20%" width="140%" height="140%">
            <feDropShadow dx="0" dy="2" stdDeviation="2" flood-color="#000" flood-opacity="0.3"/>
        </filter>
    </defs>
    <polygon points="50,2 84,18 98,50 84,82 50,98 16,82 2,50 16,18"
             fill="url(#frameGradicon100L)"
             filter="url(#frameShadowicon100L)"/>
    <polygon points="50,2 84,18 98,50 84,82 50,98 16,82 2,50 16,18"
             fill="none"
             stroke="url(#frameHighlighticon100L)"
             stroke-width="1.5"/>
    <polygon points="50,10 76,22 88,50 76,78 50,90 24,78 12,50 24,22"
             fill="url(#mirrorSurfaceicon100L)"/>
    <polygon points="50,10 76,22 88,50 76,78 50,90 24,78 12,50 24,22"
             fill="none"
             stroke="url(#blueGradicon100L)"
             stroke-width="2"/>
    <path d="M24,28 L34,50 L50,32 L66,50 L76,28"
          fill="none"
          stroke="url(#primaryGradicon100L)"
          stroke-width="5"
          stroke-linecap="round"
          stroke-linejoin="round"/>
    <line x1="16" y1="50" x2="84" y2="50"
          stroke="url(#mirrorShimmericon100L)"
          stroke-width="2.5"/>
    <path d="M24,72 L34,50 L50,68 L66,50 L76,72"
          fill="none"
          stroke="url(#reflectionGradicon100L)"
          stroke-width="5"
          stroke-linecap="round"
          stroke-linejoin="round"/>
    <line x1="50" y1="2" x2="50" y2="10" stroke="url(#goldGradicon100L)" stroke-width="2"/>
    <line x1="50" y1="90" x2="50" y2="98" stroke="url(#goldGradicon100L)" stroke-width="2"/>
    <line x1="2" y1="50" x2="12" y2="50" stroke="url(#goldGradicon100L)" stroke-width="2"/>
    <line x1="88" y1="50" x2="98" y2="50" stroke="url(#goldGradicon100L)" stroke-width="2"/>
</svg>